<svg width="17" height="16" viewBox="0 0 17 16" fill="none" xmlns="http://www.w3.org/2000/svg">
<g clip-path="url(#clip0_29_24)">
<path d="M15.1667 3.45334L7.56004 11.0667L4.73337 8.24001L5.67337 7.30001L7.56004 9.18668L14.2267 2.52001L15.1667 3.45334ZM8.50004 13.3333C5.56004 13.3333 3.16671 10.94 3.16671 8.00001C3.16671 5.06001 5.56004 2.66668 8.50004 2.66668C9.54671 2.66668 10.5267 2.97334 11.3534 3.50001L12.32 2.53334C11.2334 1.78001 9.92004 1.33334 8.50004 1.33334C4.82004 1.33334 1.83337 4.32001 1.83337 8.00001C1.83337 11.68 4.82004 14.6667 8.50004 14.6667C9.65337 14.6667 10.74 14.3733 11.6867 13.8533L10.6867 12.8533C10.02 13.16 9.28004 13.3333 8.50004 13.3333ZM13.1667 10H11.1667V11.3333H13.1667V13.3333H14.5V11.3333H16.5V10H14.5V8.00001H13.1667V10Z" fill="#EA580C"/>
</g>
<defs>
<clipPath id="clip0_29_24">
<rect width="16" height="16" fill="white" transform="translate(0.5)"/>
</clipPath>
</defs>
</svg>
