<svg width="16" height="17" viewBox="0 0 16 17" fill="none" xmlns="http://www.w3.org/2000/svg">
<path d="M8.51295 0H7.48595V7.7H5.94495V8.732H7.48595V16.432H8.51295V13.355H10.0539V12.328H8.51295V4.109H10.0539V3.082H8.51295V0Z" fill="#52C41A"/>
<path d="M15 1.21899H12C11.4477 1.21899 11 1.66671 11 2.21899V5.21899C11 5.77128 11.4477 6.21899 12 6.21899H15C15.5523 6.21899 16 5.77128 16 5.21899V2.21899C16 1.66671 15.5523 1.21899 15 1.21899Z" fill="#52C41A"/>
<path d="M15 10.219H12C11.4477 10.219 11 10.6667 11 11.219V14.219C11 14.7713 11.4477 15.219 12 15.219H15C15.5523 15.219 16 14.7713 16 14.219V11.219C16 10.6667 15.5523 10.219 15 10.219Z" fill="#52C41A"/>
<path d="M4 5.21899H1C0.447715 5.21899 0 5.66671 0 6.21899V10.219C0 10.7713 0.447715 11.219 1 11.219H4C4.55228 11.219 5 10.7713 5 10.219V6.21899C5 5.66671 4.55228 5.21899 4 5.21899Z" fill="#52C41A"/>
</svg>
